<?xml version="1.0"?>
<svg xmlns="http://www.w3.org/2000/svg" xmlns:xlink="http://www.w3.org/1999/xlink" xmlns:svgjs="http://svgjs.com/svgjs" version="1.1" width="512" height="512" x="0" y="0" viewBox="0 0 64 64" style="enable-background:new 0 0 512 512" xml:space="preserve" class=""><g><path xmlns="http://www.w3.org/2000/svg" d="M42.9,42.52A1.319,1.319,0,0,0,43,42c0-1.264-1.455-1.894-5.562-2.406A97.183,97.183,0,0,0,26,39a97.183,97.183,0,0,0-11.438.594C10.455,40.106,9,40.736,9,42a1.319,1.319,0,0,0,.1.52l.838,3.143A16.708,16.708,0,0,0,12.7,51.311a9.4,9.4,0,0,0-1.864,1.436L9.586,54H2a1,1,0,0,0-1,1v7a1,1,0,0,0,1,1H30a7.75,7.75,0,0,0,5.75-2.561l6.288-6.986A3.752,3.752,0,0,0,43,50.944v-.192a3.751,3.751,0,0,0-1.631-3.09,16.848,16.848,0,0,0,.689-2ZM26,41a74.1,74.1,0,0,1,13.8,1A74.1,74.1,0,0,1,26,43a74.1,74.1,0,0,1-13.8-1A74.1,74.1,0,0,1,26,41Zm15,9.944a1.754,1.754,0,0,1-.449,1.172L34.264,59.1A5.748,5.748,0,0,1,30,61H3V56h7a1,1,0,0,0,.707-.293l1.546-1.546A7.333,7.333,0,0,1,17.471,52h1.293a2.6,2.6,0,0,1,2.341,1.447A1,1,0,0,0,22,54h7a1,1,0,0,1,0,2H22v2h7a3,3,0,0,0,3-3,3.121,3.121,0,0,0-.022-.364L37.822,49.7a1.074,1.074,0,0,0,.108-.105A1.751,1.751,0,0,1,41,50.752ZM39.248,47a3.751,3.751,0,0,0-2.769,1.22l-5.434,4.587A2.991,2.991,0,0,0,29,52H22.569a4.59,4.59,0,0,0-3.8-2H17.471a9.383,9.383,0,0,0-2.9.462,14.465,14.465,0,0,1-2.7-5.315L11.54,43.9a28.06,28.06,0,0,0,3.022.51A97.183,97.183,0,0,0,26,45a97.183,97.183,0,0,0,11.438-.594,28.06,28.06,0,0,0,3.022-.51l-.334,1.251a14.663,14.663,0,0,1-.656,1.875C39.4,47.018,39.324,47,39.248,47Z" fill="#ffffff" data-original="#000000" class=""/><path xmlns="http://www.w3.org/2000/svg" d="M62.956,14.706l-4-13a1,1,0,0,0-1.327-.635l-5,2a1,1,0,0,0-.524,1.376l.553,1.106L47.764,8H36.92a10.927,10.927,0,0,0-7.5,2.973L17.9,22.678a3.108,3.108,0,0,0-.9,2.194,3.164,3.164,0,0,0,5.281,2.315l.083-.075a3.366,3.366,0,0,0,4.661,1.463,1.033,1.033,0,0,0,.183-.131l4.377-3.931A3.385,3.385,0,0,0,34.385,26a.9.9,0,0,0,.156-.013l12.615-2a.992.992,0,0,0,.513-.245l8.865-7.979.518,1.552a1,1,0,0,0,1.4.579l4-2A1,1,0,0,0,62.956,14.706ZM25.968,26.87A1.382,1.382,0,0,1,24,25.623L32.387,18h4.42l-3.678,1.471a3.362,3.362,0,0,0-2.108,2.861Zm20.583-4.811L34.316,24a1.385,1.385,0,0,1-.445-2.67l8.5-3.4A1,1,0,0,0,42,16H32a1,1,0,0,0-.673.26L20.936,25.707a1.162,1.162,0,0,1-.808.293,1.128,1.128,0,0,1-.8-1.919L30.817,12.405a8.915,8.915,0,0,1,6.1-2.4H48a1,1,0,0,0,.447-.105l5.007-2.5,2.37,6.322ZM58.584,15.59l-.636-1.906h0c0-.012,0-.024-.007-.036l-3-8a1.034,1.034,0,0,0-.057-.089l.015-.007-.514-1.028,2.982-1.193L60.8,14.484Z" fill="#ffffff" data-original="#000000" class=""/><path xmlns="http://www.w3.org/2000/svg" d="M37,33a5,5,0,1,0-5,5A5.006,5.006,0,0,0,37,33Zm-8,0a3,3,0,1,1,3,3A3,3,0,0,1,29,33Z" fill="#ffffff" data-original="#000000" class=""/></g></svg>
