<?xml version="1.0"?>
<svg xmlns="http://www.w3.org/2000/svg" xmlns:xlink="http://www.w3.org/1999/xlink" xmlns:svgjs="http://svgjs.com/svgjs" version="1.1" width="512" height="512" x="0" y="0" viewBox="0 0 512 512" style="enable-background:new 0 0 512 512" xml:space="preserve" class=""><g><path xmlns="http://www.w3.org/2000/svg" d="m203.209 355.756-78.759-.14 33.875-58.675 18.153 10.477a10.667 10.667 0 0 0 15.344-12.92l-28.414-77.252a10.663 10.663 0 0 0 -11.826-6.828l-81.108 14.018a10.667 10.667 0 0 0 -3.519 19.747l18.135 10.475-43.09 74.642a73.9 73.9 0 0 0 63.874 110.849l97.265.171h.039a21.333 21.333 0 0 0 21.322-21.33v-41.9a21.363 21.363 0 0 0 -21.291-21.334zm-142.754 36.744a52.058 52.058 0 0 1 .017-52.533l48.428-83.878a10.667 10.667 0 0 0 -3.9-14.57l-1.867-1.078 43.327-7.486 15.179 41.267-1.883-1.087a10.666 10.666 0 0 0 -14.57 3.905l-48.43 83.878-13.265 22.975a37.594 37.594 0 0 0 -4.064 27.807 52.477 52.477 0 0 1 -18.972-19.2zm142.717 26.49-91.519-.161a16.624 16.624 0 0 1 -9.686-24.269l10.18-17.632 91.024.147v41.915z" fill="#ffffff" data-original="#000000"/><path xmlns="http://www.w3.org/2000/svg" d="m469.93 329.707-48.682-83.994a21.365 21.365 0 0 0 -29.124-7.777l-36.285 20.951a21.334 21.334 0 0 0 -7.791 29.172l39.418 68.009-68.11-.118v-20.8a10.666 10.666 0 0 0 -18.861-6.828l-52.695 63.233a10.667 10.667 0 0 0 0 13.657l52.695 63.234a10.667 10.667 0 0 0 18.86-6.829v-21.1l86.515.15h.145a73.1 73.1 0 0 0 63.975-36.944 73.228 73.228 0 0 0 -.059-74.017zm-103.43-52.344 36.286-20.951 45.9 79.194a16.611 16.611 0 0 1 -16.163 20.494h-20.381zm85.011 115.691a51.989 51.989 0 0 1 -45.505 26.281h-.1l-97.2-.169h-.019a10.668 10.668 0 0 0 -10.667 10.667v2.326l-28.143-33.773 28.143-33.769v1.983a10.667 10.667 0 0 0 10.648 10.667l97.306.169h26.547a37.584 37.584 0 0 0 26.135-10.406 52.643 52.643 0 0 1 -7.14 26.023z" fill="#ffffff" data-original="#000000"/><path xmlns="http://www.w3.org/2000/svg" d="m150.994 183.186 36.294 20.944a21.359 21.359 0 0 0 29.137-7.811l39.144-67.8 34.191 59-17.821 10.281a10.667 10.667 0 0 0 3.516 19.748l81.109 14.017a10.658 10.658 0 0 0 11.827-6.829l28.409-77.247a10.666 10.666 0 0 0 -15.345-12.919l-18.455 10.661-43.513-75.066a73.193 73.193 0 0 0 -63.964-36.849h-.035a73.156 73.156 0 0 0 -63.934 36.95l-48.372 83.777a21.335 21.335 0 0 0 7.813 29.144zm104.506-128.538h.025a52.074 52.074 0 0 1 45.5 26.215l48.848 84.28a10.664 10.664 0 0 0 14.563 3.888l2.168-1.252-15.173 41.253-43.317-7.483 1.56-.9a10.668 10.668 0 0 0 3.9-14.586l-48.795-84.2-13.254-22.955a37.583 37.583 0 0 0 -22.04-17.425 52.46 52.46 0 0 1 26.015-6.835zm-48.362 31.29a16.565 16.565 0 0 1 25.911 3.637l10.185 17.641-45.284 78.437-36.293-20.944z" fill="#ffffff" data-original="#000000"/></g></svg>
