<?xml version="1.0"?>
<svg xmlns="http://www.w3.org/2000/svg" xmlns:xlink="http://www.w3.org/1999/xlink" xmlns:svgjs="http://svgjs.com/svgjs" version="1.1" width="512" height="512" x="0" y="0" viewBox="0 0 64 64" style="enable-background:new 0 0 512 512" xml:space="preserve" class=""><g><g xmlns="http://www.w3.org/2000/svg" id="Layer_11" data-name="Layer 11"><path d="m12 9.4c-3.161 6.973-9 20.671-9 24.6a8.914 8.914 0 0 0 11.234 8.693c.656-3.848 2.659-9.525 5.074-15.452-2.115-6.155-5.654-14.174-7.308-17.841z" fill="#ffffff" data-original="#000000" class=""/><path d="m52 9.4c-1.657 3.665-5.195 11.684-7.31 17.839 2.416 5.929 4.42 11.608 5.075 15.455a8.923 8.923 0 0 0 11.235-8.694c0-3.929-5.839-17.627-9-24.6z" fill="#ffffff" data-original="#000000" class=""/><path d="m16 45a16 16 0 0 0 32 0c0-7.824-12.511-33.695-16-40.757-3.489 7.063-16 32.934-16 40.757zm17.707 3.707-3 3-1.414-1.414 1.293-1.293h-8.586a1 1 0 0 1 -.832-1.555l4-6 1.664 1.11-2.963 4.445h6.717l-1.293-1.293 1.414-1.414 3 3a1 1 0 0 1 0 1.414zm7.293-9.707v2h-2.2l4.044 6.47a1 1 0 0 1 -.844 1.53h-7v-2h5.2l-2.8-4.474-.429 1.717-1.94-.486 1-4a1 1 0 0 1 .969-.757zm-4.168-1.555-1.664 1.11-3.141-4.712-3.227 5.157h2.2v2h-4a1 1 0 0 1 -.97-.757l-1-4 1.94-.486.429 1.717 3.753-6a1 1 0 0 1 1.68-.025z" fill="#ffffff" data-original="#000000" class=""/></g></g></svg>
